<svg xmlns="http://www.w3.org/2000/svg" viewBox="0 0 74.1 98.3"><defs><style>.cls-1{fill:#21e6c1;}.cls-2{fill:#278ea5;}.cls-3{fill:#227e93;}.cls-4{fill:#1ad0ae;}</style></defs><g id="Layer_2" data-name="Layer 2"><g id="svg"><polyline class="cls-1" points="36.9 0 54.7 30.8 19.5 30.8"/><polygon class="cls-1" points="74.1 64.4 38.6 64.4 37.1 61.7 37.1 61.7 54.7 30.8 74.1 64.4"/><polygon class="cls-2" points="74.1 64.4 38.6 64.4 37.1 67.1 37.1 67.1 54.7 98 74.1 64.4"/><polygon class="cls-1" points="0 64.4 35.5 64.4 37.1 67.1 37.1 67.1 19.4 98 0 64.4"/><polygon class="cls-2" points="0 64.4 35.5 64.4 37.1 61.7 37.1 61.7 19.4 30.8 0 64.4"/><polygon class="cls-3" points="54.9 98.2 19.5 98.3 19.3 98 37.1 67.1 54.9 98.2"/><polyline class="cls-4" points="37.1 61.7 54.7 30.8 19.4 30.8"/></g></g></svg>